<svg xmlns="http://www.w3.org/2000/svg" aria-hidden="true" style="position:absolute;width:0;height:0;overflow:hidden">
  <defs>
    <symbol id="icon-arrow-back" viewBox="0 0 46 32">
      <path d="M42.57 18a2 2 0 0 0 0-4v4zM.898 14.586a2 2 0 0 0 0 2.828l12.728 12.728a2 2 0 1 0 2.828-2.828L5.14 16 16.454 4.686a2 2 0 1 0-2.828-2.828L.898 14.586zM42.57 14H2.312v4H42.57v-4z"/>
    </symbol>
    <symbol id="icon-Arrow-right" viewBox="0 0 56 32">
      <path d="M2 14a2 2 0 1 0 0 4v-4zm53.414 3.414a2 2 0 0 0 0-2.828L42.686 1.858a2 2 0 1 0-2.828 2.828L51.172 16 39.858 27.314a2 2 0 1 0 2.828 2.828l12.728-12.728zM2 18h52v-4H2v4z"/>
    </symbol>
    <symbol id="cyborg" viewBox="0 0 32 32">
      <path fill="#232536" d="M20.69 9.375c0 1.034.841 1.875 1.875 1.875h5.574a12.069 12.069 0 0 0-.897-3.75h-4.677a1.877 1.877 0 0 0-1.875 1.875z" style="fill:var(--color1, #232536)"/>
      <path fill="#ffd050" d="M8.503 32h11.25a.936.936 0 0 0 .937-.937V26.25h1.875v-6.094l-9.374-7.031H4.753a.937.937 0 0 0-.938.938c0 3.321 1.361 6.501 3.75 8.795v8.205c0 .518.419.937.938.937z" style="fill:var(--color2, #ffd050)"/>
      <path fill="#232536" d="M16.003 0a.937.937 0 0 0-.938.938v.938h-3.923A2.807 2.807 0 0 0 8.502.001c-1.551 0-2.813 1.262-2.813 2.813s1.262 2.813 2.813 2.813a2.807 2.807 0 0 0 2.64-1.875h3.923v3.75H5.517a2.807 2.807 0 0 0-2.64-1.875C1.326 5.627.002 6.889.002 8.44s1.324 2.813 2.875 2.813a2.807 2.807 0 0 0 2.64-1.875h9.548v2.813l9 6.75a.938.938 0 0 1 .375.75v6.563h.937a2.816 2.816 0 0 0 2.813-2.813v-4.687h2.875a.937.937 0 0 0 .78-1.457l-2.841-4.167h-6.439c-2.068 0-3.75-1.682-3.75-3.75s1.682-3.75 3.75-3.75h3.688C24.084 2.254 20.306.005 16.003.005z" style="fill:var(--color1, #232536)"/>
    </symbol>
    <symbol id="economy" viewBox="0 0 31 32">
      <path fill="#232536" d="M6.821 20.567H3.376c-1.242 0-2.253 1.057-2.253 2.356v7.631c0 .798.621 1.447 1.384 1.447h5.184c.763 0 1.384-.649 1.384-1.447v-7.631c0-1.299-1.011-2.356-2.253-2.356zM16.933 15.932h-3.445c-1.242 0-2.253 1.057-2.253 2.356v12.265c0 .798.621 1.447 1.384 1.447h5.184c.763 0 1.384-.649 1.384-1.447V18.288c0-1.299-1.011-2.356-2.253-2.356zM27.235 10.652H23.79c-1.243 0-2.253 1.057-2.253 2.356v17.546c0 .798.621 1.447 1.384 1.447h5.184c.763 0 1.384-.649 1.384-1.447V13.008c0-1.299-1.011-2.356-2.253-2.356z" style="fill:var(--color1, #232536)"/>
      <path fill="#ffd050" d="M24.491.891c-.421-.623-1.107-.952-1.834-.882L16.15.638c-.727.07-1.343.526-1.648 1.219s-.236 1.478.186 2.101l.363.537-8.084 5.84c-.573.424-.954 1.056-1.072 1.779s.04 1.452.445 2.051a2.6 2.6 0 0 0 2.151 1.161c.537 0 1.06-.172 1.508-.502l8.089-5.844.375.554a1.972 1.972 0 0 0 1.834.883c.727-.07 1.343-.526 1.648-1.219l2.732-6.206a2.167 2.167 0 0 0-.186-2.101z" style="fill:var(--color2, #ffd050)"/>
    </symbol>
    <symbol id="icon-facebook" viewBox="0 0 32 32">
      <path d="M32 16c0-8.837-7.163-16-16-16S0 7.163 0 16c0 7.986 5.851 14.605 13.5 15.806V20.625H9.437V16H13.5v-3.525c0-4.01 2.389-6.225 6.043-6.225 1.75 0 3.582.313 3.582.313v3.938h-2.017c-1.988 0-2.608 1.233-2.608 2.5v3h4.438l-.709 4.625h-3.728v11.181c7.649-1.2 13.5-7.82 13.5-15.806z"/>
    </symbol>
    <symbol id="icon-instagram" viewBox="0 0 34 32">
      <path d="M16.668 2.881c4.275 0 4.781.019 6.462.094 1.563.069 2.406.331 2.969.55a4.964 4.964 0 0 1 1.838 1.194 4.93 4.93 0 0 1 1.194 1.838c.219.563.481 1.412.55 2.969.075 1.688.094 2.194.094 6.463 0 4.275-.019 4.781-.094 6.463-.069 1.563-.331 2.406-.55 2.969a4.927 4.927 0 0 1-1.194 1.837 4.926 4.926 0 0 1-1.838 1.194c-.562.219-1.412.481-2.969.55-1.687.075-2.194.094-6.462.094-4.275 0-4.781-.019-6.463-.094-1.563-.069-2.406-.331-2.969-.55a4.94 4.94 0 0 1-1.838-1.194 4.922 4.922 0 0 1-1.194-1.837c-.219-.563-.481-1.413-.55-2.969-.075-1.687-.094-2.194-.094-6.463 0-4.275.019-4.781.094-6.463.069-1.563.331-2.406.55-2.969a4.952 4.952 0 0 1 1.194-1.838 4.926 4.926 0 0 1 1.838-1.194c.563-.219 1.412-.481 2.969-.55 1.681-.075 2.188-.094 6.463-.094zm0-2.881c-4.344 0-4.888.019-6.594.094-1.7.075-2.869.35-3.881.744-1.056.412-1.95.956-2.837 1.85a7.833 7.833 0 0 0-1.85 2.831C1.112 6.538.837 7.7.762 9.4.687 11.113.668 11.656.668 16s.019 4.888.094 6.594c.075 1.7.35 2.869.744 3.881.413 1.056.956 1.95 1.85 2.837a7.807 7.807 0 0 0 2.831 1.844c1.019.394 2.181.669 3.881.744 1.706.075 2.25.094 6.594.094s4.887-.019 6.594-.094c1.7-.075 2.869-.35 3.881-.744 1.05-.406 1.944-.956 2.831-1.844s1.437-1.781 1.844-2.831c.394-1.019.669-2.181.744-3.881.075-1.706.094-2.25.094-6.594s-.019-4.887-.094-6.594c-.075-1.7-.35-2.869-.744-3.881a7.514 7.514 0 0 0-1.831-2.844A7.82 7.82 0 0 0 27.15.843C26.131.449 24.969.174 23.269.099c-1.713-.081-2.256-.1-6.6-.1z"/>
      <path d="M16.668 7.781c-4.537 0-8.219 3.681-8.219 8.219s3.681 8.219 8.219 8.219c4.537 0 8.219-3.681 8.219-8.219s-3.681-8.219-8.219-8.219zm0 13.55a5.331 5.331 0 1 1 0-10.663 5.331 5.331 0 0 1 0 10.663zM27.13 7.456a1.92 1.92 0 1 1-3.839 0 1.92 1.92 0 0 1 3.839 0z"/>
    </symbol>
    <symbol id="icon-linkedin" viewBox="0 0 32 32">
      <path d="M29.631 0H2.362C1.056 0 0 1.031 0 2.306v27.381c0 1.275 1.056 2.312 2.362 2.312h27.269c1.306 0 2.369-1.037 2.369-2.306V2.305c0-1.275-1.062-2.306-2.369-2.306zM9.494 27.269h-4.75V11.994h4.75v15.275zM7.119 9.912a2.751 2.751 0 1 1 0-5.5 2.75 2.75 0 1 1 0 5.5zm20.15 17.357h-4.744v-7.425c0-1.769-.031-4.05-2.469-4.05-2.469 0-2.844 1.931-2.844 3.925v7.55h-4.738V11.994h4.55v2.088h.063c.631-1.2 2.181-2.469 4.488-2.469 4.806 0 5.694 3.162 5.694 7.275v8.381z"/>
    </symbol>
    <symbol id="logo" viewBox="0 0 154 32">
      <path d="M154.209 23.896v3.823h-3.207c-3.422-.108-5.25-1.956-5.25-5.426v-8.731h-2.239v-3.354h2.239V6.453h4.732v3.715h3.618v3.344h-3.618v8.311c0 1.124.225 2.024 1.955 2.024l1.77.049zM124.651 18.998v-.254a8.553 8.553 0 0 1 8.184-8.935h.684c4.468 0 8.388 2.601 8.388 8.8v1.32H129.49c.127 2.855 1.672 4.468 4.273 4.468 2.239 0 3.285-.978 3.588-2.405h4.469c-.548 3.725-3.52 5.798-8.223 5.798-5.163-.039-8.947-3.305-8.947-8.79zm12.604-2.064c-.167-2.601-1.476-3.852-3.755-3.852s-3.588 1.408-3.911 3.852h7.666zM105.332 18.998v-.254a8.553 8.553 0 0 1 4.921-8.139 8.56 8.56 0 0 1 3.243-.798h.684c4.469 0 8.399 2.601 8.399 8.8v1.32h-12.408c.127 2.855 1.672 4.468 4.273 4.468 2.239 0 3.285-.978 3.587-2.405h4.469c-.557 3.725-3.53 5.798-8.233 5.798-5.153-.039-8.936-3.305-8.936-8.79zm12.603-2.064c-.167-2.601-1.476-3.852-3.755-3.852-2.278 0-3.549 1.447-3.911 3.843l7.666.01zM78.22 10.168h5.006l3.06 11.596 3.354-11.596h3.911l3.031 11.596 3.227-11.596h4.586l-5.436 17.228h-4.693l-2.933-10.814-3.139 10.814h-4.752l-5.221-17.228zM62.31 21.979h4.468c.205 1.555.978 2.444 3.031 2.444 1.838 0 2.689-.694 2.689-1.877s-.978-1.682-3.481-2.034c-4.586-.694-6.355-2.014-6.355-5.378 0-3.588 3.285-5.368 6.844-5.368 3.823 0 6.707 1.388 7.118 5.348h-4.41a2.333 2.333 0 0 0-.837-1.583 2.315 2.315 0 0 0-1.714-.519h-.147c-1.545 0-2.444.724-2.444 1.779s.831 1.516 3.354 1.877c4.282.645 6.678 1.731 6.678 5.417s-2.708 5.661-7.245 5.661-7.421-2.043-7.548-5.769zM43.323 10.168h4.732v2.728a5.925 5.925 0 0 1 5.583-3.129c3.354 0 5.788 2.044 5.788 6.707v10.96h-4.674V17.158c0-2.337-.909-3.451-3.021-3.451a3.407 3.407 0 0 0-3.319 1.83 3.41 3.41 0 0 0-.367 1.28 2.622 2.622 0 0 0 0 .626v9.953h-4.723V10.168zM34.191 5.837a2.388 2.388 0 0 1 2.767-2.442 2.378 2.378 0 0 1 1.939 1.809 2.391 2.391 0 0 1-.93 2.484c-.383.276-.84.431-1.312.447h-.088a2.222 2.222 0 0 1-1.618-.555 2.23 2.23 0 0 1-.749-1.537 1.564 1.564 0 0 1-.01-.205zm0 4.331h4.781v17.228H34.21l-.02-17.228zM16.172 3.852h15.116v4.175h-9.777v6.228h7.744v4.018h-7.753v9.122h-5.329V3.851zM7.05 11.557c0 1.476 0 3.275-2.034 4.009 2.083.714 2.034 2.229 2.034 3.813v5.866c0 1.115.45 1.789 1.252 1.955.176.059.362.086.548.078h1.955v3.911H7.578c-3.442 0-5.338-1.955-5.338-5.583v-6.942a1.43 1.43 0 0 0-1.398-1.33H.001v-3.432h.841a1.418 1.418 0 0 0 1.398-1.369v-7.04c0-3.569 1.858-5.495 5.338-5.495h3.256V3.85H8.879a1.79 1.79 0 0 0-.548.088c-.802.205-1.252.87-1.252 1.955l-.029 5.661z"/>
    </symbol>
    <symbol id="icon-logoipsum" viewBox="0 0 160 32">
      <path d="M24.447 14.083c-.445.455-.786 1.003-.998 1.607s-.291 1.247-.23 1.885l-.021-.021c.062.751-.037 1.507-.292 2.214s-.659 1.351-1.184 1.883c-.525.533-1.158.943-1.855 1.202s-1.441.36-2.181.297l.021.021c-.885-.084-1.773.112-2.544.56s-1.388 1.127-1.765 1.943c-.378.817-.498 1.732-.345 2.62s.573 1.707 1.201 2.345c.629.637 1.435 1.063 2.311 1.218s1.776.032 2.58-.352 1.471-1.011 1.912-1.794c.44-.784.632-1.686.549-2.584l.022.021c-.063-.751.037-1.507.292-2.214s.659-1.351 1.184-1.883c.525-.533 1.158-.943 1.855-1.202s1.441-.36 2.181-.297l-.022-.021c.723.066 1.45-.054 2.115-.35s1.245-.756 1.688-1.34c.442-.584.733-1.272.843-2s.039-1.473-.209-2.165-.664-1.31-1.21-1.796-1.203-.823-1.912-.982c-.708-.159-1.445-.134-2.141.074s-1.33.589-1.842 1.111h-.003zM15.785 20.36l-.022-.021a4.21 4.21 0 0 0 3.44-1.245c.447-.453.789-1.002 1.001-1.606s.29-1.249.227-1.887l.022.021c-.062-.751.037-1.507.292-2.214s.659-1.351 1.184-1.883 1.158-.943 1.855-1.202a5.032 5.032 0 0 1 2.181-.297l-.022-.021c.885.084 1.773-.111 2.545-.558s1.389-1.126 1.767-1.942.499-1.732.346-2.62c-.153-.889-.572-1.708-1.201-2.346s-1.435-1.064-2.311-1.219c-.875-.155-1.776-.033-2.581.351s-1.472 1.01-1.913 1.794-.632 1.686-.549 2.584l-.021-.023c.063.751-.037 1.507-.292 2.215s-.659 1.351-1.184 1.884c-.525.533-1.158.943-1.855 1.202s-1.442.36-2.181.296l.021.023a4.21 4.21 0 0 0-3.44 1.245 4.347 4.347 0 0 0-1.001 1.606 4.382 4.382 0 0 0-.227 1.887l-.021-.021c.062.751-.038 1.506-.293 2.214s-.659 1.35-1.184 1.883c-.525.533-1.158.943-1.855 1.202s-1.441.36-2.181.297l.021.021c-.885-.084-1.773.11-2.545.558s-1.389 1.126-1.767 1.942c-.378.817-.499 1.732-.346 2.62s.572 1.708 1.2 2.346c.628.638 1.435 1.064 2.311 1.219s1.777.033 2.581-.351 1.472-1.01 1.913-1.794a4.438 4.438 0 0 0 .549-2.584l.022.021c-.062-.751.037-1.507.292-2.214s.659-1.351 1.184-1.883c.525-.533 1.158-.943 1.855-1.202s1.441-.36 2.181-.297zM7.914 17.967c.445-.454.786-1.003.998-1.607s.29-1.247.229-1.885l.022.021c-.062-.751.037-1.507.292-2.215s.659-1.351 1.184-1.884c.525-.533 1.158-.943 1.856-1.202s1.442-.36 2.181-.296l-.022-.021c.884.084 1.773-.111 2.544-.558s1.388-1.125 1.766-1.942c.378-.816.498-1.731.346-2.619s-.572-1.707-1.2-2.345C17.482.776 16.675.351 15.8.195s-1.776-.033-2.58.351-1.472 1.01-1.912 1.793-.633 1.685-.55 2.583l-.021-.021c.062.751-.037 1.507-.292 2.214s-.659 1.35-1.184 1.883c-.525.533-1.158.943-1.855 1.202s-1.441.36-2.181.297l.021.021c-.723-.066-1.45.055-2.114.35s-1.245.757-1.687 1.341a4.438 4.438 0 0 0-.634 4.165c.248.692.664 1.31 1.21 1.795s1.203.823 1.912.982c.708.159 1.445.133 2.141-.074s1.33-.589 1.842-1.111h-.002zM44.285 6.076h3.487v17.231h-3.487V6.076zM49.748 17.407c-.005-1.238.352-2.45 1.026-3.482s1.634-1.838 2.76-2.315c1.125-.477 2.365-.605 3.562-.366s2.297.832 3.161 1.706c.864.874 1.453 1.988 1.693 3.203s.119 2.473-.346 3.618-1.255 2.123-2.269 2.811a6.092 6.092 0 0 1-3.425 1.056c-.81.009-1.613-.145-2.363-.455s-1.432-.768-2.005-1.348c-.574-.58-1.028-1.27-1.335-2.031s-.463-1.575-.457-2.397zm8.834 0c-.014-.534-.184-1.051-.486-1.488s-.725-.773-1.215-.967a2.638 2.638 0 0 0-2.889.637 2.754 2.754 0 0 0-.546 2.951c.205.492.547.912.986 1.207s.953.453 1.478.452a2.595 2.595 0 0 0 1.939-.801 2.66 2.66 0 0 0 .735-1.99zM75.969 11.506v11.207c0 3.965-3.046 5.642-6.137 5.642-1.088.083-2.178-.14-3.15-.645s-1.788-1.271-2.359-2.216l2.975-1.747c.24.492.622.899 1.096 1.164s1.016.378 1.554.322a2.284 2.284 0 0 0 1.911-.622c.252-.242.448-.539.572-.869s.173-.683.144-1.035v-1.079c-.408.507-.928.91-1.517 1.177s-1.232.389-1.877.358c-1.534-.049-2.988-.702-4.056-1.821s-1.665-2.616-1.665-4.174c0-1.558.597-3.055 1.665-4.174s2.522-1.772 4.056-1.821a4.088 4.088 0 0 1 3.394 1.534v-1.204l3.394.002zm-3.393 5.664c.023-.571-.122-1.135-.417-1.621s-.727-.871-1.24-1.106c-.513-.235-1.083-.308-1.637-.211s-1.067.36-1.473.756c-.406.396-.686.905-.803 1.464s-.069 1.14.142 1.67c.21.53.572.983 1.038 1.303s1.016.489 1.579.489a2.592 2.592 0 0 0 2.004-.737c.265-.258.474-.57.613-.915s.205-.716.195-1.089zM77.944 17.407c-.005-1.238.352-2.45 1.026-3.482s1.634-1.838 2.76-2.315c1.125-.477 2.365-.605 3.561-.366s2.297.832 3.161 1.706c.864.874 1.453 1.988 1.693 3.203s.119 2.473-.346 3.618-1.255 2.123-2.269 2.811a6.092 6.092 0 0 1-3.425 1.056c-.809.009-1.613-.145-2.363-.455s-1.432-.768-2.005-1.348-1.028-1.27-1.335-2.031a6.261 6.261 0 0 1-.457-2.397zm8.834 0c-.015-.534-.184-1.051-.487-1.488s-.725-.773-1.215-.967a2.638 2.638 0 0 0-2.889.637 2.754 2.754 0 0 0-.546 2.951c.205.492.547.912.986 1.207.438.295.953.453 1.478.452a2.595 2.595 0 0 0 1.939-.801 2.66 2.66 0 0 0 .735-1.99zM91.891 8.342c0-.42.123-.831.353-1.18s.557-.622.939-.782c.382-.161.803-.203 1.208-.121s.779.284 1.072.581a2.158 2.158 0 0 1 .453 2.316c-.158.388-.426.72-.77.953s-.749.358-1.163.358c-.552-.006-1.082-.231-1.473-.628s-.613-.934-.619-1.496zm.352 3.163h3.489v11.803h-3.493l.005-11.803zM110.789 17.407a5.965 5.965 0 0 1-1.502 4.288 5.851 5.851 0 0 1-1.835 1.382 5.77 5.77 0 0 1-2.219.56 4.302 4.302 0 0 1-1.891-.324 4.358 4.358 0 0 1-1.571-1.116v5.831h-3.488V11.505h3.488v1.109a4.347 4.347 0 0 1 3.462-1.439 5.77 5.77 0 0 1 2.219.56c.695.333 1.32.803 1.836 1.382a5.955 5.955 0 0 1 1.501 4.289zm-3.487 0a2.829 2.829 0 0 0-.5-1.541 2.76 2.76 0 0 0-1.255-1.003c-.507-.202-1.061-.248-1.592-.131s-1.019.389-1.399.785-.637.896-.738 1.439c-.1.543-.042 1.104.169 1.613.212.509.567.944 1.02 1.249s.986.468 1.53.468a2.628 2.628 0 0 0 2.018-.81 2.709 2.709 0 0 0 .747-2.068zM121.548 19.767c0 2.715-2.323 3.871-4.833 3.871-1.014.093-2.033-.125-2.924-.625s-1.614-1.261-2.074-2.184l3.02-1.747c.123.426.385.797.744 1.05.36.253.793.374 1.229.342.837 0 1.255-.26 1.255-.731 0-1.299-5.719-.614-5.719-4.697 0-2.574 2.14-3.871 4.557-3.871.909-.029 1.809.19 2.606.634s1.462 1.097 1.926 1.891l-2.975 1.629c-.131-.309-.348-.572-.625-.757s-.601-.283-.932-.281c-.604 0-.977.238-.977.661.004 1.346 5.722.448 5.722 4.815zM134.289 11.505v11.803h-3.487v-1.11a3.97 3.97 0 0 1-1.49 1.126 3.924 3.924 0 0 1-1.833.314c-2.348 0-4.344-1.699-4.344-4.888v-7.245h3.487v6.726a1.952 1.952 0 0 0 .521 1.549 1.914 1.914 0 0 0 1.501.597c1.279 0 2.161-.755 2.161-2.431v-6.438l3.484-.004zM154.283 16.061v7.246h-3.487v-6.94c0-1.18-.559-1.935-1.674-1.935-1.162 0-1.814.826-1.814 2.219v6.656h-3.485v-6.94c0-1.18-.559-1.935-1.675-1.935-1.163 0-1.813.826-1.813 2.219v6.656h-3.487V11.504h3.487v1.085c.362-.481.836-.863 1.381-1.11s1.14-.352 1.734-.305a3.405 3.405 0 0 1 1.724.371c.534.273.989.681 1.321 1.186a3.84 3.84 0 0 1 1.488-1.22 3.779 3.779 0 0 1 1.882-.337c2.669.001 4.418 1.936 4.418 4.887zM157.234 11.432c1.429 0 2.588-1.176 2.588-2.628s-1.159-2.628-2.588-2.628c-1.428 0-2.588 1.176-2.588 2.628s1.16 2.628 2.588 2.628z"/>
    </symbol>
    <symbol id="icon-logoipsum2" viewBox="0 0 136 32">
      <path d="M32.934 7.806h3.119v15.162h-3.119V7.806zM37.797 17.774c0-1.091.321-2.157.922-3.064s1.455-1.613 2.455-2.029c.999-.416 2.098-.523 3.158-.308s2.032.743 2.794 1.517c.762.774 1.279 1.758 1.486 2.829s.094 2.179-.323 3.185c-.418 1.006-1.122 1.864-2.024 2.466s-1.96.919-3.041.913c-.717.006-1.428-.133-2.091-.409s-1.265-.681-1.77-1.194a5.474 5.474 0 0 1-1.566-3.906zm7.818 0c-.012-.47-.162-.926-.429-1.311a2.366 2.366 0 0 0-2.44-.964 2.362 2.362 0 0 0-1.197.669 2.406 2.406 0 0 0 .386 3.663c.388.261.844.399 1.31.399a2.298 2.298 0 0 0 1.705-.711c.221-.23.392-.504.502-.805s.159-.62.142-.94h.021zM60.992 12.58v9.874c0 3.484-2.703 4.963-5.437 4.963-.965.08-1.932-.113-2.793-.558s-1.583-1.124-2.083-1.96l2.63-1.532c.213.434.552.791.972 1.026s.9.334 1.378.286a2.068 2.068 0 0 0 1.684-.558 2.12 2.12 0 0 0 .645-1.666V21.5a3.647 3.647 0 0 1-3.005 1.343c-1.379 0-2.701-.553-3.676-1.537s-1.523-2.318-1.523-3.71c0-1.391.548-2.726 1.523-3.71s2.297-1.537 3.676-1.537a3.647 3.647 0 0 1 3.005 1.343v-1.049l3.005-.063zm-3.004 4.984c.021-.502-.108-.999-.369-1.427a2.492 2.492 0 0 0-2.546-1.16c-.49.085-.945.316-1.304.664a2.53 2.53 0 0 0-.59 2.756c.185.466.505.866.917 1.148.412.282.898.432 1.396.433a2.325 2.325 0 0 0 2.322-1.453 2.37 2.37 0 0 0 .173-.96zM62.75 17.774c0-1.09.32-2.155.92-3.062s1.453-1.612 2.451-2.029a5.412 5.412 0 0 1 5.949 1.199c.763.771 1.282 1.754 1.491 2.823s.1 2.177-.315 3.184-1.116 1.866-2.015 2.47a5.422 5.422 0 0 1-3.035.923 5.358 5.358 0 0 1-3.871-1.598 5.456 5.456 0 0 1-1.576-3.911zm7.819 0c-.012-.471-.162-.927-.43-1.313a2.365 2.365 0 0 0-2.444-.962c-.456.1-.872.334-1.197.672-.325.338-.544.765-.629 1.228s-.033.941.149 1.374c.183.433.488.802.878 1.061s.847.396 1.313.394a2.302 2.302 0 0 0 2.207-1.515c.11-.3.159-.62.142-.94h.01zM75.09 9.8c0-.369.109-.73.312-1.038a1.842 1.842 0 0 1 2.848-.283 1.876 1.876 0 0 1-.279 2.873 1.84 1.84 0 0 1-1.028.315c-.489-.005-.957-.204-1.302-.553s-.543-.821-.548-1.315zm.301 2.78h3.119v10.388h-3.119V12.58zM91.859 17.773a5.282 5.282 0 0 1-1.345 3.795c-.46.512-1.018.927-1.638 1.221s-1.292.461-1.977.492c-.581.039-1.163-.055-1.703-.275s-1.024-.56-1.416-.995v5.131h-3.119V12.578h3.119v.976a3.828 3.828 0 0 1 3.119-1.259c.682.031 1.351.197 1.969.489s1.173.704 1.634 1.213.818 1.104 1.05 1.752c.233.648.336 1.335.306 2.024zm-3.119 0c-.012-.487-.167-.96-.444-1.359a2.45 2.45 0 0 0-2.529-.998 2.442 2.442 0 0 0-1.24.695c-.337.35-.564.792-.652 1.271s-.035.974.154 1.423c.189.449.505.831.909 1.099s.876.41 1.359.408a2.338 2.338 0 0 0 1.785-.717 2.395 2.395 0 0 0 .658-1.822zM101.351 19.852c0 2.392-2.079 3.41-4.283 3.41-.899.082-1.802-.111-2.591-.552s-1.43-1.112-1.838-1.924l2.682-1.532c.106.374.337.701.653.924s.698.331 1.083.304c.738 0 1.113-.231 1.113-.651 0-1.144-5.063-.535-5.063-4.134 0-2.267 1.892-3.4 4.034-3.4.814-.037 1.623.15 2.341.539s1.317.969 1.735 1.675l-2.683 1.427c-.118-.271-.312-.501-.557-.663s-.533-.249-.825-.25c-.541 0-.864.21-.864.577 0 1.196 5.063.409 5.063 4.249zM112.652 12.58v10.388h-3.119v-.976a3.54 3.54 0 0 1-2.932 1.291c-2.079 0-3.857-1.5-3.857-4.302V12.58h3.119v5.928c-.024.248.005.498.085.734.081.235.212.45.382.63a1.69 1.69 0 0 0 1.331.525c1.124 0 1.913-.672 1.913-2.099V12.58h3.078zM130.326 16.588v6.38h-3.119v-6.107c0-1.049-.489-1.7-1.477-1.7s-1.611.724-1.611 1.952v5.855H121v-6.107c0-1.049-.488-1.7-1.477-1.7-.987 0-1.611.724-1.611 1.952v5.855h-3.119V12.58h3.119v.955c.323-.422.745-.756 1.228-.972s1.011-.308 1.538-.266a3.022 3.022 0 0 1 1.525.322c.471.239.874.598 1.167 1.042.342-.463.796-.831 1.318-1.07s1.095-.34 1.666-.294c2.433 0 3.972 1.7 3.972 4.291zM14.355 5.078V.619H.424v30.639h13.931v-4.459c-2.854 0-5.591-1.144-7.609-3.181s-3.152-4.799-3.152-7.679 1.134-5.643 3.152-7.679 4.755-3.181 7.609-3.181z"/>
      <path d="M14.354 5.078v21.72c2.854 0 5.591-1.144 7.609-3.181s3.152-4.799 3.152-7.679-1.134-5.643-3.152-7.679-4.755-3.181-7.609-3.181zM132.946 12.518c1.263 0 2.287-1.034 2.287-2.308s-1.024-2.308-2.287-2.308c-1.264 0-2.288 1.033-2.288 2.308s1.024 2.308 2.288 2.308z"/>
    </symbol>
    <symbol id="icon-logoipsum3" viewBox="0 0 135 32">
      <path d="M39.303 9.347h3.381v13.658h-3.381V9.347zm4.722 8.501c0-3.378 2.074-5.393 5.275-5.393s5.275 2.015 5.275 5.393c0 3.378-2.029 5.405-5.275 5.405s-5.275-1.971-5.275-5.405zm7.157 0c0-1.858-.733-2.95-1.882-2.95s-1.871 1.126-1.871 2.95c0 1.824.71 2.928 1.871 2.928s1.882-1.036 1.882-2.916v-.011zm4.666 5.821h3.246a1.753 1.753 0 0 0 1.826 1.013c1.285 0 1.961-.698 1.961-1.711v-1.892h-.068c-.269.58-.706 1.066-1.255 1.395s-1.183.486-1.822.452c-2.468 0-4.102-1.881-4.102-5.112s1.555-5.27 4.148-5.27a3.237 3.237 0 0 1 3.111 1.981v-1.88h3.381v10.246c0 2.466-2.175 3.997-5.387 3.997-2.987 0-4.846-1.34-5.038-3.209v-.011zm7.044-5.832c0-1.644-.755-2.68-1.95-2.68s-1.927 1.025-1.927 2.68.721 2.59 1.927 2.59 1.95-.912 1.95-2.578v-.011zm4.655 0c0-3.378 2.074-5.393 5.275-5.393s5.286 2.015 5.286 5.393c0 3.378-2.029 5.405-5.286 5.405s-5.275-1.959-5.275-5.393v-.011zm7.156 0c0-1.858-.733-2.95-1.882-2.95s-1.814 1.137-1.814 2.973.71 2.928 1.86 2.928c1.15 0 1.837-1.047 1.837-2.928v-.023zm4.689-7.646a1.722 1.722 0 0 1 2.02-1.741 1.718 1.718 0 0 1 1.311 2.321 1.718 1.718 0 0 1-1.572 1.097 1.64 1.64 0 0 1-1.758-1.655v-.023zm0 2.477h3.381v10.336h-3.381V12.668zm15.655 5.169c0 3.378-1.499 5.303-4.069 5.303a3.228 3.228 0 0 1-3.156-1.914h-.068v5.089h-3.381V12.646h3.381v1.847h.068a3.231 3.231 0 0 1 3.133-1.993c2.593.045 4.136 1.982 4.136 5.36l-.044-.023zm-3.381 0c0-1.644-.756-2.691-1.939-2.691s-1.939 1.058-1.95 2.691c-.011 1.633.766 2.68 1.95 2.68s1.939-1.025 1.939-2.657v-.023zm9.185-5.405c2.806 0 4.508 1.329 4.587 3.457h-3.077c0-.732-.608-1.194-1.544-1.194s-1.352.36-1.352.89c0 .529.372.698 1.127.856l2.163.439c2.064.439 2.942 1.272 2.942 2.837 0 2.139-1.95 3.513-4.824 3.513s-4.756-1.374-4.902-3.479h3.257c.102.766.711 1.216 1.702 1.216s1.443-.326 1.443-.867c0-.541-.316-.653-1.127-.822l-1.95-.416c-2.018-.417-3.077-1.486-3.077-3.063.023-2.027 1.838-3.344 4.632-3.344v-.023zm16.128 10.55h-3.258v-1.925h-.067a2.945 2.945 0 0 1-2.998 2.151 3.605 3.605 0 0 1-1.507-.238c-.479-.186-.914-.473-1.272-.842s-.635-.809-.809-1.293a3.598 3.598 0 0 1-.199-1.512v-6.677h3.382v5.9c0 1.227.631 1.88 1.679 1.88a1.722 1.722 0 0 0 1.713-1.947v-5.833h3.382l-.046 10.336zm1.634-10.336h3.269v1.993h.067a3.004 3.004 0 0 1 2.942-2.185 2.691 2.691 0 0 1 2.874 2.252h.068a3.173 3.173 0 0 1 3.178-2.252 3.29 3.29 0 0 1 2.474 1.004 3.27 3.27 0 0 1 .907 2.509v7.037h-3.381v-6.137c0-1.126-.508-1.644-1.454-1.644a1.484 1.484 0 0 0-1.118.497 1.475 1.475 0 0 0-.359 1.169v6.114h-3.211v-6.182c0-1.036-.507-1.599-1.432-1.599a1.504 1.504 0 0 0-1.13.508 1.521 1.521 0 0 0-.369 1.181v6.091h-3.381l.056-10.359zM29.847 9.966a14.961 14.961 0 0 0-2.254-3.626 15.253 15.253 0 0 0-17.47-4.51c-2 .799-3.807 2.011-5.304 3.557a15.22 15.22 0 0 0-2.438 17.86 15.243 15.243 0 0 0 4.157 4.846 14.783 14.783 0 0 0 3.607 2.061 15.108 15.108 0 0 0 5.714 1.126c4.045-.009 7.922-1.62 10.781-4.48s4.465-6.736 4.468-10.777a15.074 15.074 0 0 0-1.262-6.058zM15.849 3.852c1.76 0 3.499.384 5.094 1.126a4.957 4.957 0 0 1-1.217.349 6.457 6.457 0 0 0-5.466 5.461 3.379 3.379 0 0 1-3.055 2.984 6.457 6.457 0 0 0-5.466 5.461 3.275 3.275 0 0 1-.89 1.959A12.153 12.153 0 0 1 9.987 5.333a12.179 12.179 0 0 1 5.873-1.504l-.011.023zM6.528 23.906c.135-.124.271-.237.406-.372a6.168 6.168 0 0 0 1.826-3.637c.073-.778.42-1.504.981-2.049a3.185 3.185 0 0 1 2.04-.968 6.457 6.457 0 0 0 5.466-5.461c.049-.813.398-1.58.98-2.151a3.235 3.235 0 0 1 2.063-.935 6.18 6.18 0 0 0 3.381-1.61 11.85 11.85 0 0 1 2.66 3.13.957.957 0 0 1-.147.158 3.235 3.235 0 0 1-2.04.991 6.435 6.435 0 0 0-5.466 5.461 3.377 3.377 0 0 1-3.032 3.018 6.494 6.494 0 0 0-5.5 5.461 3.546 3.546 0 0 1-.552 1.543 12.297 12.297 0 0 1-3.066-2.578zm9.321 4.346a12.231 12.231 0 0 1-3.381-.473c.376-.7.62-1.464.721-2.252a3.38 3.38 0 0 1 3.021-3.018 6.46 6.46 0 0 0 5.477-5.461 3.38 3.38 0 0 1 3.021-3.018 6.433 6.433 0 0 0 2.885-1.126 12.183 12.183 0 0 1-2.116 10.524 12.194 12.194 0 0 1-9.627 4.767v.056z"/>
    </symbol>
    <symbol id="icon-logoipsum4" viewBox="0 0 153 32">
      <path d="M49.372 25.492a3.43 3.43 0 0 1-2.164-.622 2.016 2.016 0 0 1-.816-1.696V11.168a.337.337 0 0 1 .376-.376h2.177c.246 0 .363.13.363.376v11.073c0 .492.22.738.674.738.192.008.385-.014.57-.065.259 0 .402.078.415.311l.194 1.619a.345.345 0 0 1-.065.272.331.331 0 0 1-.247.13c-.477.157-.975.24-1.477.246zM61.621 24.107a6.11 6.11 0 0 1-7.776 0 5.176 5.176 0 0 1 0-7.292 6.13 6.13 0 0 1 7.776 0 5.254 5.254 0 0 1 0 7.279v.013zm-5.728-1.71a2.76 2.76 0 0 0 3.706 0 2.898 2.898 0 0 0 0-3.808 2.76 2.76 0 0 0-3.706 0 2.898 2.898 0 0 0 0 3.808zM75.075 15.753c.246 0 .363.13.363.376v9.286a4.23 4.23 0 0 1-1.439 3.328 5.445 5.445 0 0 1-3.772 1.295 6.063 6.063 0 0 1-3.512-.971 3.883 3.883 0 0 1-1.697-2.59c0-.259 0-.376.35-.376h2.177a.48.48 0 0 1 .428.298c.141.393.423.721.791.919.448.231.947.347 1.452.337a2.31 2.31 0 0 0 1.672-.596 2.188 2.188 0 0 0 .609-1.619v-.816a4.347 4.347 0 0 1-2.696.842 5.039 5.039 0 0 1-3.681-1.411 5.18 5.18 0 0 1 0-7.201 5.062 5.062 0 0 1 3.681-1.398 4.358 4.358 0 0 1 2.761.894v-.207a.334.334 0 0 1 .216-.355.35.35 0 0 1 .147-.02l2.151-.013zm-5.029 7.408a2.29 2.29 0 0 0 1.776-.764 3.17 3.17 0 0 0 0-3.886 2.268 2.268 0 0 0-1.763-.751 2.327 2.327 0 0 0-1.802.764 2.75 2.75 0 0 0-.7 1.943 2.799 2.799 0 0 0 .687 1.93 2.342 2.342 0 0 0 1.801.764zM86.621 24.106a6.13 6.13 0 0 1-7.776 0 5.27 5.27 0 0 1 0-7.292 6.148 6.148 0 0 1 7.776 0 5.258 5.258 0 0 1 0 7.278v.013zm-5.742-1.71a2.591 2.591 0 0 0 1.867.712 2.602 2.602 0 0 0 1.854-.713 2.94 2.94 0 0 0 0-3.808 2.602 2.602 0 0 0-1.854-.713 2.593 2.593 0 0 0-1.867.712 2.94 2.94 0 0 0 0 3.808zM92.764 13.551a1.879 1.879 0 0 1-2.476 0 1.573 1.573 0 0 1-.492-1.14c0-.213.044-.425.128-.621s.208-.373.364-.519a1.921 1.921 0 0 1 2.476 0 1.573 1.573 0 0 1 .492 1.14c0 .213-.044.425-.128.621s-.208.373-.364.519zm.273 11.941a3.488 3.488 0 0 1-2.165-.622 2.046 2.046 0 0 1-.804-1.697v-7.045a.336.336 0 0 1 .225-.36.352.352 0 0 1 .151-.016h2.177c.246 0 .363.13.363.376v6.113c0 .492.22.738.661.738.197.007.393-.015.583-.065.259 0 .402.078.415.311l.194 1.619c.009.047.008.096-.002.143s-.032.091-.061.129a.331.331 0 0 1-.247.13 4.933 4.933 0 0 1-1.49.246zM102.849 15.442a5.087 5.087 0 0 1 3.707 1.398 5.306 5.306 0 0 1 0 7.24 5.047 5.047 0 0 1-3.707 1.411 4.456 4.456 0 0 1-2.708-.842v4.675c0 .246-.13.363-.376.363h-2.177a.313.313 0 0 1-.363-.363v-10.62a.674.674 0 0 0-.765-.764h-.428c-.285 0-.428-.104-.428-.311v-1.528a.417.417 0 0 1 .299-.427 3.882 3.882 0 0 1 1.4-.233 2.398 2.398 0 0 1 2.346 1.296 4.366 4.366 0 0 1 3.201-1.295zm-2.021 6.955a2.486 2.486 0 0 0 1.788.764 2.48 2.48 0 0 0 1.789-.764 2.795 2.795 0 0 0 .713-1.982 2.76 2.76 0 0 0-.713-1.982 2.462 2.462 0 0 0-2.761-.565 2.456 2.456 0 0 0-.816.565 2.86 2.86 0 0 0-.687 1.982c-.026.723.219 1.43.687 1.982zM114.098 25.492a6.248 6.248 0 0 1-3.331-.803 3.17 3.17 0 0 1-1.014-.975 3.17 3.17 0 0 1-.489-1.317c0-.259.091-.389.376-.389h1.905a.488.488 0 0 1 .427.285c.273.699.985 1.049 2.126 1.049.398.018.794-.062 1.154-.233a.756.756 0 0 0 .441-.634c0-.337-.208-.57-.623-.725a7.015 7.015 0 0 0-1.516-.324 14.345 14.345 0 0 1-1.815-.324 2.977 2.977 0 0 1-1.516-.868 2.776 2.776 0 0 1-.595-2.129 2.77 2.77 0 0 1 1.152-1.886 5.344 5.344 0 0 1 3.136-.829 5.735 5.735 0 0 1 3.059.764 2.896 2.896 0 0 1 1.427 2.034c0 .259-.118.389-.351.389h-1.918c-.081.005-.161-.015-.231-.056s-.124-.103-.158-.177a1.292 1.292 0 0 0-.674-.686 2.276 2.276 0 0 0-1.115-.259 2.249 2.249 0 0 0-1.101.22.649.649 0 0 0-.414.595.83.83 0 0 0 .621.765 7.073 7.073 0 0 0 1.542.389c.607.08 1.208.192 1.802.337a2.973 2.973 0 0 1 1.517.868 2.441 2.441 0 0 1 .635 1.775 2.594 2.594 0 0 1-1.206 2.254 5.67 5.67 0 0 1-3.253.894zM132.257 24.845a.345.345 0 0 1-.065.263.35.35 0 0 1-.233.138 5.026 5.026 0 0 1-1.464.246 2.886 2.886 0 0 1-2.593-1.126 4.691 4.691 0 0 1-3.304 1.127 4.016 4.016 0 0 1-3.034-1.179 4.256 4.256 0 0 1-1.153-3.121v-5.064c0-.246.116-.376.363-.376h2.178c.245 0 .362.13.362.376v4.675a2.295 2.295 0 0 0 .558 1.593 1.945 1.945 0 0 0 1.49.609c.284.012.568-.032.835-.129s.512-.247.72-.441a2.058 2.058 0 0 0 .584-1.541v-4.766c0-.246.116-.376.362-.376h2.204c.246 0 .362.13.362.376v6.1c0 .505.221.751.649.751.2.008.402-.014.596-.065a.335.335 0 0 1 .388.166.339.339 0 0 1 .04.145l.155 1.619zM152.851 24.845c.011.046.012.095.003.142s-.029.091-.058.129a.33.33 0 0 1-.243.131 5.04 5.04 0 0 1-1.491.246 3.463 3.463 0 0 1-2.165-.622c-.273-.19-.495-.444-.647-.74s-.227-.625-.22-.957V20.13a2.294 2.294 0 0 0-.546-1.593 1.826 1.826 0 0 0-1.451-.608 1.617 1.617 0 0 0-1.295.57 2.296 2.296 0 0 0-.493 1.528v4.779c0 .246-.117.376-.363.376h-2.191a.339.339 0 0 1-.376-.376v-4.675a2.393 2.393 0 0 0-.505-1.593 1.687 1.687 0 0 0-1.296-.609 1.879 1.879 0 0 0-1.425.57c-.371.42-.562.969-.532 1.528v4.779a.337.337 0 0 1-.376.376h-2.112c-.247 0-.364-.13-.364-.376v-6.1a.661.661 0 0 0-.19-.574.674.674 0 0 0-.574-.19h-.428c-.285 0-.428-.104-.428-.311v-1.528a.412.412 0 0 1 .299-.427 3.873 3.873 0 0 1 1.399-.233 2.439 2.439 0 0 1 2.308 1.192 4.373 4.373 0 0 1 3.292-1.192 3.719 3.719 0 0 1 3.071 1.373 4.271 4.271 0 0 1 3.396-1.373 4.102 4.102 0 0 1 3.071 1.179 4.212 4.212 0 0 1 1.154 3.121v2.5c0 .492.22.738.635.738.201.009.402-.012.596-.065.268 0 .41.104.428.311l.117 1.619zM.873 14.07c.956-3.84 3.171-7.251 6.291-9.688a17.752 17.752 0 0 1 21.854 0 17.73 17.73 0 0 1 6.291 9.688h-1.555a12.56 12.56 0 0 0-7.349 2.241c-.124.09-.254.172-.389.246h-.181a3.643 3.643 0 0 1-.389-.246 13.187 13.187 0 0 0-14.71 0c-.124.09-.254.172-.389.246h-.181a3.855 3.855 0 0 1-.389-.246 12.567 12.567 0 0 0-7.349-2.241H.873zm30.082 8.12a4.37 4.37 0 0 1 2.8-.919h2.087v-4.157h-2.087a8.279 8.279 0 0 0-4.964 1.58 4.717 4.717 0 0 1-5.6 0 8.818 8.818 0 0 0-10.07 0 4.717 4.717 0 0 1-5.6 0 8.27 8.27 0 0 0-5.029-1.58H.341v4.157h2.087a4.372 4.372 0 0 1 2.8.919 8.788 8.788 0 0 0 10.058 0 4.395 4.395 0 0 1 2.8-.919 4.347 4.347 0 0 1 2.8.919 8.818 8.818 0 0 0 10.07 0zm0 7.434a4.37 4.37 0 0 1 2.8-.919h2.087v-4.157h-2.087a8.272 8.272 0 0 0-4.964 1.58 4.717 4.717 0 0 1-5.6 0 8.818 8.818 0 0 0-10.07 0 4.717 4.717 0 0 1-5.6 0 8.27 8.27 0 0 0-5.029-1.58H.341v4.157h2.087a4.372 4.372 0 0 1 2.8.919 8.788 8.788 0 0 0 10.058 0 4.395 4.395 0 0 1 2.8-.919 4.347 4.347 0 0 1 2.8.919 8.818 8.818 0 0 0 10.07 0z"/>
    </symbol>
    <symbol id="icon-logoipsum5" viewBox="0 0 136 32">
      <path d="M39 9.9h3.42v13.867H39V9.9zm4.783 8.651c0-3.435 2.13-5.494 5.327-5.494s5.327 2.059 5.327 5.494c0 3.435-2.056 5.515-5.327 5.515s-5.327-2.006-5.327-5.515zm7.266 0c0-1.888-.735-2.998-1.907-2.998s-1.896 1.067-1.896 2.998c0 1.931.724 2.987 1.896 2.987s1.928-1.056 1.928-2.976l-.021-.011zm4.751 5.931h3.303a1.77 1.77 0 0 0 1.854 1.067c1.31 0 1.992-.704 1.992-1.749v-1.92h.011a3.272 3.272 0 0 1-3.196 1.866c-2.504 0-4.165-1.909-4.165-5.195s1.587-5.334 4.261-5.334a3.27 3.27 0 0 1 3.196 2.016h-.096v-1.931h3.388v10.39c0 2.507-2.216 4.075-5.476 4.075-2.962-.011-4.858-1.365-5.05-3.275l-.021-.011zm7.159-5.931c0-1.675-.767-2.731-1.981-2.731s-1.96 1.067-1.96 2.731.735 2.645 1.96 2.645 1.981-.907 1.981-2.645zm4.741 0c0-3.435 2.131-5.494 5.326-5.494s5.327 2.059 5.327 5.494c0 3.435-2.067 5.515-5.327 5.515s-5.305-2.006-5.305-5.515H67.7zm7.265 0c0-1.888-.746-2.998-1.907-2.998s-1.896 1.067-1.896 2.998c0 1.931.724 2.987 1.896 2.987s1.928-1.056 1.928-2.976l-.021-.011zm4.772-7.776a1.753 1.753 0 0 1 1.025-1.668c.318-.144.671-.189 1.015-.131s.662.219.914.461a1.756 1.756 0 0 1-.229 2.712c-.289.195-.629.3-.978.301a1.668 1.668 0 0 1-1.21-.471 1.671 1.671 0 0 1-.515-1.194l-.021-.011zm0 2.517h3.462V23.81H79.79l-.053-10.518zm15.916 5.259c0 3.424-1.534 5.408-4.144 5.408a3.273 3.273 0 0 1-3.196-1.952h-.064v5.184h-3.42V13.324h3.398v1.877h.065a3.29 3.29 0 0 1 3.195-2.027c2.685-.021 4.229 1.952 4.229 5.387l-.064-.011zm-3.483 0c0-1.664-.778-2.742-1.982-2.742s-1.96 1.067-1.97 2.742c-.011 1.675.766 2.731 1.97 2.731s2.046-.992 2.046-2.72l-.064-.011zm9.321-5.504c2.866 0 4.645 1.355 4.666 3.531h-3.121c0-.757-.628-1.227-1.566-1.227s-1.385.363-1.385.907.394.715 1.183.875l2.194.448c2.131.448 2.983 1.302 2.983 2.891 0 2.133-1.971 3.584-4.9 3.584-2.93 0-4.837-1.408-4.975-3.552h3.313c.096.779.713 1.237 1.715 1.237s1.47-.32 1.47-.885-.319-.661-1.14-.832l-1.982-.416c-2.056-.437-3.132-1.515-3.132-3.125.065-2.091 1.854-3.424 4.741-3.424l-.064-.011zm16.406 10.752h-3.313v-1.974h-.064a3.003 3.003 0 0 1-3.057 2.187 3.657 3.657 0 0 1-2.766-1.135c-.356-.374-.628-.818-.799-1.305s-.238-1.004-.196-1.518v-6.752h3.42v6.016c0 1.237.65 1.909 1.715 1.909a1.739 1.739 0 0 0 1.314-.611 1.757 1.757 0 0 0 .401-1.394v-5.92h3.409l-.064 10.496zm1.651-10.507h3.324v2.027h.074a3.042 3.042 0 0 1 2.994-2.219 2.727 2.727 0 0 1 2.919 2.229h.149c.213-.672.642-1.255 1.22-1.659s1.273-.604 1.976-.571a3.333 3.333 0 0 1 3.442 3.573v7.136h-3.442v-6.262c0-1.067-.501-1.664-1.47-1.664a1.49 1.49 0 0 0-1.502 1.696v6.23h-3.26v-6.294c0-1.067-.522-1.632-1.459-1.632a1.522 1.522 0 0 0-1.524 1.717v6.208h-3.419l-.022-10.518zM32.236 10.806A10.546 10.546 0 0 0 25.529.984 10.514 10.514 0 0 0 13.955 3.68H.66v28.097h28.071V18.646a10.527 10.527 0 0 0 3.505-7.84zm-5.401 0c.002 1.017-.297 2.012-.86 2.86s-1.364 1.508-2.302 1.898-1.971.494-2.968.297c-.997-.197-1.913-.686-2.632-1.405a5.147 5.147 0 0 1 .773-7.913 5.135 5.135 0 0 1 7.989 4.264zM23.33 26.37H6.061V9.089h5.263a10.193 10.193 0 0 0-.16 1.717c.003 2.797 1.114 5.479 3.089 7.457s4.653 3.09 7.447 3.093a10.237 10.237 0 0 0 1.63-.139v5.152z"/>
    </symbol>
    <symbol id="shuttle" viewBox="0 0 32 32">
      <path fill="#ffd050" d="m8.14 8.642-2.772.214a2.477 2.477 0 0 0-1.885 1.109L.286 14.801c-.324.489-.375 1.102-.138 1.638s.725.91 1.305 1l2.538.393c.594-3.151 2.015-6.295 4.149-9.191zM14.168 28.009l.393 2.538a1.707 1.707 0 0 0 1.695 1.452c.33 0 .658-.096.944-.285l4.836-3.197a2.474 2.474 0 0 0 1.109-1.885l.214-2.772c-2.896 2.134-6.04 3.555-9.191 4.149zM13.213 26.249c.088 0 .177-.007.265-.022a18.439 18.439 0 0 0 3.807-1.079L6.852 14.715a18.298 18.298 0 0 0-1.079 3.807c-.087.52.088 1.051.461 1.424l5.821 5.821c.31.31.728.483 1.159.483z" style="fill:var(--color2, #ffd050)"/>
      <path fill="#232536" d="M29.448 14.188c2.553-4.936 2.647-10.152 2.514-12.598A1.644 1.644 0 0 0 30.41.038c-.398-.022-.87-.037-1.402-.037-2.735 0-7.064.414-11.196 2.552-3.284 1.699-7.59 5.439-10.13 10.354.03.023.059.048.087.076l11.25 11.25c.028.028.052.057.076.087 4.915-2.541 8.655-6.847 10.354-10.13zM18.606 6.765a4.692 4.692 0 0 1 6.629 0c.885.885 1.373 2.062 1.373 3.315s-.488 2.429-1.373 3.315c-.914.914-2.114 1.371-3.314 1.371s-2.401-.457-3.314-1.371c-.885-.885-1.373-2.062-1.373-3.315s.488-2.429 1.373-3.315z" style="fill:var(--color1, #232536)"/>
      <path fill="#232536" d="M19.932 12.068a2.816 2.816 0 0 0 3.978 0c.531-.531.824-1.238.824-1.989s-.292-1.457-.824-1.989c-.548-.548-1.269-.822-1.989-.822s-1.441.274-1.989.822c-.531.531-.824 1.237-.824 1.989s.293 1.458.824 1.989z" style="fill:var(--color1, #232536)"/>
      <path fill="#ffd050" d="M.957 26.371c.24 0 .48-.092.663-.275l3.061-3.061a.938.938 0 0 0-1.326-1.326L.294 24.77a.938.938 0 0 0 .663 1.601zM7.485 24.515a.938.938 0 0 0-1.326 0L.274 30.4A.938.938 0 1 0 1.6 31.725l5.885-5.885a.938.938 0 0 0 0-1.326zM8.963 27.319 5.902 30.38a.938.938 0 0 0 1.326 1.326l3.061-3.061a.938.938 0 0 0-1.326-1.326z" style="fill:var(--color2, #ffd050)"/>
    </symbol>
    <symbol id="icon-tweet" viewBox="0 0 34 32">
      <path d="M11.399 29.001c12.073 0 18.677-10.004 18.677-18.678 0-.281-.006-.569-.019-.85a13.31 13.31 0 0 0 3.274-3.399c-1.197.532-2.467.88-3.768 1.031a6.602 6.602 0 0 0 2.887-3.631 13.2 13.2 0 0 1-4.168 1.593 6.57 6.57 0 0 0-7.888-1.291 6.573 6.573 0 0 0-3.304 7.278A18.65 18.65 0 0 1 3.561 4.199c-.838 1.445-1.095 3.155-.717 4.782s1.36 3.05 2.748 3.979a6.57 6.57 0 0 1-2.974-.819v.081a6.56 6.56 0 0 0 5.268 6.438 6.532 6.532 0 0 1-2.962.113 6.577 6.577 0 0 0 6.13 4.563 13.168 13.168 0 0 1-9.723 2.716 18.625 18.625 0 0 0 10.067 2.949z"/>
    </symbol>
    <symbol id="two-house" viewBox="0 0 32 32">
      <path fill="#232536" d="M16.687 9.276 9.36 8.163c-.34-.053-.687.04-.947.26-.26.227-.413.553-.413.893v14.047c0 .367.3.667.667.667h2.167v-3.5c0-.647.52-1.167 1.167-1.167h1.667c.647 0 1.167.52 1.167 1.167v3.5h2.833v-13.6a1.17 1.17 0 0 0-.981-1.154zm-5.02 8.587h-1a.5.5 0 0 1 0-1h1a.5.5 0 0 1 0 1zm0-2h-1a.5.5 0 0 1 0-1h1a.5.5 0 0 1 0 1zm0-2h-1a.5.5 0 0 1 0-1h1a.5.5 0 0 1 0 1zm0-2h-1a.5.5 0 0 1 0-1h1a.5.5 0 0 1 0 1zm3.333 6h-1a.5.5 0 0 1 0-1h1a.5.5 0 0 1 0 1zm0-2h-1a.5.5 0 0 1 0-1h1a.5.5 0 0 1 0 1zm0-2h-1a.5.5 0 0 1 0-1h1a.5.5 0 0 1 0 1zm0-2h-1a.5.5 0 0 1 0-1h1a.5.5 0 0 1 0 1z" style="fill:var(--color1, #232536)"/>
      <path fill="#ffd050" d="m23.08 15.258-4.747-.994v9.766h4.5c.643 0 1.167-.523 1.167-1.167v-6.465a1.16 1.16 0 0 0-.92-1.14zM21.5 22.03h-1a.5.5 0 0 1 0-1h1a.5.5 0 0 1 0 1zm0-2h-1a.5.5 0 0 1 0-1h1a.5.5 0 0 1 0 1zm0-2h-1a.5.5 0 0 1 0-1h1a.5.5 0 0 1 0 1z" style="fill:var(--color2, #ffd050)"/>
    </symbol>
  </defs>
</svg>
